<svg xmlns="http://www.w3.org/2000/svg" xmlns:xlink="http://www.w3.org/1999/xlink" viewBox="0 0 1280 705"><defs><style>.cls-1{fill:none;}.cls-2{isolation:isolate;}.cls-13,.cls-3{fill:#fff;}.cls-4{opacity:0.32;}.cls-5{clip-path:url(#clip-path);}.cls-6{opacity:0.11;}.cls-7{fill:#a630b0;}.cls-46,.cls-47,.cls-8,.cls-9{opacity:0.25;}.cls-8{fill:url(#radial-gradient);}.cls-9{fill:url(#radial-gradient-2);}.cls-10{fill:url(#radial-gradient-3);}.cls-11{fill:url(#linear-gradient);}.cls-12,.cls-14,.cls-15{fill:#fea7af;}.cls-13,.cls-14{opacity:0.29;}.cls-15,.cls-21{opacity:0.33;}.cls-16{opacity:0.22;}.cls-17{fill:url(#linear-gradient-2);}.cls-18{fill:url(#linear-gradient-3);}.cls-19{fill:url(#linear-gradient-4);}.cls-20,.cls-23,.cls-26,.cls-28,.cls-30,.cls-39,.cls-40,.cls-41,.cls-42,.cls-53{mix-blend-mode:screen;}.cls-20{fill:url(#linear-gradient-5);}.cls-22{fill:url(#linear-gradient-6);}.cls-23{fill:url(#linear-gradient-7);}.cls-24{opacity:0.35;}.cls-25{fill:url(#linear-gradient-8);}.cls-26{fill:url(#linear-gradient-9);}.cls-27{fill:url(#linear-gradient-10);}.cls-28{fill:url(#linear-gradient-11);}.cls-29{fill:url(#linear-gradient-12);}.cls-30{fill:url(#linear-gradient-13);}.cls-31,.cls-35,.cls-49{mix-blend-mode:multiply;}.cls-31{fill:url(#radial-gradient-4);}.cls-32{fill:url(#linear-gradient-14);}.cls-33{fill:url(#linear-gradient-15);}.cls-34{fill:url(#linear-gradient-16);}.cls-35{fill:url(#radial-gradient-5);}.cls-36{fill:url(#linear-gradient-17);}.cls-37{fill:url(#linear-gradient-18);}.cls-38{fill:url(#linear-gradient-19);}.cls-39{fill:url(#radial-gradient-6);}.cls-40,.cls-53{opacity:0.42;}.cls-40{fill:url(#radial-gradient-7);}.cls-41{fill:url(#radial-gradient-8);}.cls-42{fill:url(#radial-gradient-9);}.cls-43{fill:#e20000;mix-blend-mode:color;}.cls-44{clip-path:url(#clip-path-5);}.cls-45{clip-path:url(#clip-path-6);}.cls-46{fill:url(#radial-gradient-10);}.cls-47{fill:url(#radial-gradient-11);}.cls-48{fill:url(#radial-gradient-12);}.cls-49{fill:url(#radial-gradient-13);}.cls-50{fill:url(#linear-gradient-20);}.cls-51{fill:url(#linear-gradient-21);}.cls-52{fill:url(#linear-gradient-22);}.cls-53{fill:url(#radial-gradient-14);}</style><clipPath id="clip-path"><rect class="cls-1" x="-1.56" y="-5.2" width="1283.12" height="824.02" transform="translate(1280 813.63) rotate(-180)"/></clipPath><radialGradient id="radial-gradient" cx="593.76" cy="450.61" r="596.73" gradientTransform="matrix(-1, 0, 0, 1, 1280, 0)" gradientUnits="userSpaceOnUse"><stop offset="0.01" stop-color="#de3dbf"/><stop offset="1" stop-color="#67219e"/></radialGradient><radialGradient id="radial-gradient-2" cx="862.77" cy="262.43" r="900.64" xlink:href="#radial-gradient"/><radialGradient id="radial-gradient-3" cx="1137.39" cy="521.4" r="1365.27" xlink:href="#radial-gradient"/><linearGradient id="linear-gradient" x1="897.54" y1="657.88" x2="919.86" y2="696.97" gradientTransform="matrix(-0.71, -0.71, -0.71, 0.71, 1492.77, 840.85)" gradientUnits="userSpaceOnUse"><stop offset="0.01" stop-color="#fea7af"/><stop offset="0.97" stop-color="#ea47ac"/></linearGradient><linearGradient id="linear-gradient-2" x1="753.11" y1="551.5" x2="791.05" y2="551.5" gradientTransform="matrix(-0.94, -0.34, -0.34, 0.94, 2044.46, 185.99)" xlink:href="#linear-gradient"/><linearGradient id="linear-gradient-3" x1="-360" y1="646.96" x2="-278.49" y2="646.96" gradientTransform="matrix(-0.97, 0.26, 0.26, 0.97, 656.53, -102.75)" xlink:href="#linear-gradient"/><linearGradient id="linear-gradient-4" x1="1341.94" y1="3596.56" x2="1463.56" y2="3596.56" gradientTransform="matrix(0.75, -0.66, -0.66, -0.75, 2342.53, 4207.57)" gradientUnits="userSpaceOnUse"><stop offset="0.01" stop-color="#fea7af"/><stop offset="0.99" stop-color="#ea47ac" stop-opacity="0"/></linearGradient><linearGradient id="linear-gradient-5" x1="1343.5" y1="3596.56" x2="1418.03" y2="3596.56" xlink:href="#linear-gradient-4"/><linearGradient id="linear-gradient-6" x1="1120.02" y1="3973.31" x2="1178.41" y2="3973.31" xlink:href="#linear-gradient-4"/><linearGradient id="linear-gradient-7" x1="1120.77" y1="3973.31" x2="1156.55" y2="3973.31" xlink:href="#linear-gradient-4"/><linearGradient id="linear-gradient-8" x1="1453.21" y1="3501.69" x2="1614.69" y2="3501.69" xlink:href="#linear-gradient-4"/><linearGradient id="linear-gradient-9" x1="1455.29" y1="3501.69" x2="1554.24" y2="3501.69" xlink:href="#linear-gradient-4"/><linearGradient id="linear-gradient-10" x1="1559.95" y1="3469.47" x2="1634.04" y2="3469.47" xlink:href="#linear-gradient-4"/><linearGradient id="linear-gradient-11" x1="1560.9" y1="3469.47" x2="1606.3" y2="3469.47" xlink:href="#linear-gradient-4"/><linearGradient id="linear-gradient-12" x1="921.49" y1="4031.74" x2="995.58" y2="4031.74" xlink:href="#linear-gradient-4"/><linearGradient id="linear-gradient-13" x1="922.44" y1="4031.74" x2="967.85" y2="4031.74" xlink:href="#linear-gradient-4"/><radialGradient id="radial-gradient-4" cx="331.88" cy="382.04" r="142.53" gradientTransform="matrix(-1, 0, 0, 1, 1280, 0)" gradientUnits="userSpaceOnUse"><stop offset="0" stop-color="#67219e"/><stop offset="0.01" stop-color="#6b27a1"/><stop offset="0.11" stop-color="#8d59b7"/><stop offset="0.22" stop-color="#ac86ca"/><stop offset="0.33" stop-color="#c6abda"/><stop offset="0.44" stop-color="#dacae8"/><stop offset="0.56" stop-color="#ebe1f2"/><stop offset="0.69" stop-color="#f6f2f9"/><stop offset="0.83" stop-color="#fdfcfe"/><stop offset="1" stop-color="#fff"/></radialGradient><linearGradient id="linear-gradient-14" x1="239.16" y1="383.13" x2="382.15" y2="383.13" gradientTransform="matrix(-1, 0, 0, 1, 1280, 0)" xlink:href="#linear-gradient"/><linearGradient id="linear-gradient-15" x1="246.87" y1="335.97" x2="376.01" y2="335.97" gradientTransform="matrix(-1, 0, 0, 1, 1280, 0)" gradientUnits="userSpaceOnUse"><stop offset="0.01" stop-color="#fea7af"/><stop offset="0.05" stop-color="#fda1af"/><stop offset="0.32" stop-color="#f57aae"/><stop offset="0.58" stop-color="#ef5ead"/><stop offset="0.81" stop-color="#eb4dac"/><stop offset="0.97" stop-color="#ea47ac"/></linearGradient><linearGradient id="linear-gradient-16" x1="239.71" y1="423.3" x2="379.4" y2="423.3" gradientTransform="matrix(-1, 0, 0, 1, 1280, 0)" gradientUnits="userSpaceOnUse"><stop offset="0.01" stop-color="#fea7af"/><stop offset="0.13" stop-color="#fa93ae"/><stop offset="0.36" stop-color="#f372ad"/><stop offset="0.59" stop-color="#ee5aad"/><stop offset="0.8" stop-color="#eb4cac"/><stop offset="0.97" stop-color="#ea47ac"/></linearGradient><radialGradient id="radial-gradient-5" cx="562.1" cy="503.46" r="140.36" gradientTransform="matrix(-0.9, -0.44, -0.44, 0.9, 858.83, 401.62)" xlink:href="#radial-gradient-4"/><linearGradient id="linear-gradient-17" x1="472.82" y1="480.12" x2="613.63" y2="480.12" gradientTransform="matrix(-0.95, 0.32, 0.32, 0.95, 503.01, -53.3)" xlink:href="#radial-gradient"/><linearGradient id="linear-gradient-18" x1="480.42" y1="433.68" x2="607.59" y2="433.68" gradientTransform="matrix(-0.95, 0.32, 0.32, 0.95, 503.01, -53.3)" gradientUnits="userSpaceOnUse"><stop offset="0.01" stop-color="#de3dbf"/><stop offset="0.12" stop-color="#ca38ba"/><stop offset="0.39" stop-color="#a02eae"/><stop offset="0.64" stop-color="#8127a5"/><stop offset="0.85" stop-color="#6e23a0"/><stop offset="1" stop-color="#67219e"/></linearGradient><linearGradient id="linear-gradient-19" x1="473.36" y1="519.68" x2="610.93" y2="519.68" gradientTransform="matrix(-0.95, 0.32, 0.32, 0.95, 503.01, -53.3)" gradientUnits="userSpaceOnUse"><stop offset="0.01" stop-color="#de3dbf"/><stop offset="0.12" stop-color="#c337b8"/><stop offset="0.28" stop-color="#a22fae"/><stop offset="0.45" stop-color="#8829a7"/><stop offset="0.62" stop-color="#7624a2"/><stop offset="0.8" stop-color="#6b229f"/><stop offset="1" stop-color="#67219e"/></linearGradient><radialGradient id="radial-gradient-6" cx="279.01" cy="393.25" r="188.96" gradientTransform="matrix(-0.71, -0.71, -0.71, 0.71, 1476.35, 312.47)" gradientUnits="userSpaceOnUse"><stop offset="0.01" stop-color="#de3dbf"/><stop offset="0.1" stop-color="#b03097"/><stop offset="0.22" stop-color="#822470"/><stop offset="0.34" stop-color="#5a194d"/><stop offset="0.46" stop-color="#391031"/><stop offset="0.58" stop-color="#20091c"/><stop offset="0.71" stop-color="#0e040c"/><stop offset="0.84" stop-color="#030103"/><stop offset="1"/></radialGradient><radialGradient id="radial-gradient-7" cx="1063.32" cy="729.87" r="188.96" gradientTransform="matrix(-0.71, -0.71, -0.71, 0.71, 1484.65, 965.66)" xlink:href="#radial-gradient-6"/><radialGradient id="radial-gradient-8" cx="476.7" cy="424.99" r="15.7" gradientTransform="matrix(-1, 0, 0, 1, 1280, 0)" xlink:href="#radial-gradient-6"/><radialGradient id="radial-gradient-9" cx="821.97" cy="-29.09" r="719.47" gradientTransform="matrix(-1, 0, 0, 1, 1280, 0)" gradientUnits="userSpaceOnUse"><stop offset="0" stop-color="#fff"/><stop offset="0.04" stop-color="#e6e6e6"/><stop offset="0.15" stop-color="#b1b1b1"/><stop offset="0.26" stop-color="#828282"/><stop offset="0.37" stop-color="#5a5a5a"/><stop offset="0.49" stop-color="#393939"/><stop offset="0.6" stop-color="#202020"/><stop offset="0.72" stop-color="#0e0e0e"/><stop offset="0.85" stop-color="#030303"/><stop offset="1"/></radialGradient><clipPath id="clip-path-5"><rect class="cls-1" x="-1562" y="-22" width="1313" height="960"/></clipPath><clipPath id="clip-path-6"><rect class="cls-1" x="-1182.26" y="-177.06" width="1283.12" height="824.02" transform="translate(31.54 376.72) rotate(37.4)"/></clipPath><radialGradient id="radial-gradient-10" cx="-1955.42" cy="6597.8" r="596.73" gradientTransform="translate(-6038.18 4281.87) rotate(-142.6)" xlink:href="#radial-gradient"/><radialGradient id="radial-gradient-11" cx="-1686.41" cy="6409.61" r="900.64" gradientTransform="translate(-6038.18 4281.87) rotate(-142.6)" xlink:href="#radial-gradient"/><radialGradient id="radial-gradient-12" cx="-1411.79" cy="6668.58" r="1365.27" gradientTransform="translate(-6038.18 4281.87) rotate(-142.6)" xlink:href="#radial-gradient"/><radialGradient id="radial-gradient-13" cx="-1056.26" cy="7539.82" r="140.36" gradientTransform="matrix(0.44, 0.9, 0.9, -0.44, -6310.11, 4672.64)" xlink:href="#radial-gradient-4"/><linearGradient id="linear-gradient-20" x1="-1145.54" y1="7516.48" x2="-1004.73" y2="7516.48" gradientTransform="matrix(0.95, 0.32, 0.32, -0.95, -1436.79, 7867.09)" xlink:href="#radial-gradient"/><linearGradient id="linear-gradient-21" x1="-1137.94" y1="7470.04" x2="-1010.77" y2="7470.04" gradientTransform="matrix(0.95, 0.32, 0.32, -0.95, -1436.79, 7867.09)" xlink:href="#linear-gradient-18"/><linearGradient id="linear-gradient-22" x1="-1145" y1="7556.04" x2="-1007.43" y2="7556.04" gradientTransform="matrix(0.95, 0.32, 0.32, -0.95, -1436.79, 7867.09)" xlink:href="#linear-gradient-19"/><radialGradient id="radial-gradient-14" cx="-2723.49" cy="6877.05" r="188.96" gradientTransform="matrix(0.13, 0.99, 0.99, -0.13, -6464.68, 3844.45)" xlink:href="#radial-gradient-6"/></defs><g class="cls-2"><g id="Diseño"><rect class="cls-3" x="-1.78" y="-4.98" width="1283.12" height="824.02" transform="translate(1279.57 814.05) rotate(-180)"/><g class="cls-4"><g class="cls-5"><g class="cls-6"><path class="cls-7" d="M1233.28,65.06a2.8,2.8,0,1,0,2.8-2.8A2.8,2.8,0,0,0,1233.28,65.06Z"/><path class="cls-7" d="M1114.32,65.06a2.8,2.8,0,1,0,2.8-2.8A2.8,2.8,0,0,0,1114.32,65.06Z"/><path class="cls-7" d="M995.36,65.06a2.8,2.8,0,1,0,2.8-2.8A2.81,2.81,0,0,0,995.36,65.06Z"/><path class="cls-7" d="M876.41,65.06a2.8,2.8,0,1,0,2.8-2.8A2.8,2.8,0,0,0,876.41,65.06Z"/><path class="cls-7" d="M757.45,65.06a2.8,2.8,0,1,0,2.8-2.8A2.81,2.81,0,0,0,757.45,65.06Z"/><path class="cls-7" d="M638.5,65.06a2.8,2.8,0,1,0,2.8-2.8A2.8,2.8,0,0,0,638.5,65.06Z"/><path class="cls-7" d="M519.54,65.06a2.8,2.8,0,1,0,2.8-2.8A2.8,2.8,0,0,0,519.54,65.06Z"/><path class="cls-7" d="M400.59,65.06a2.8,2.8,0,1,0,2.8-2.8A2.8,2.8,0,0,0,400.59,65.06Z"/><path class="cls-7" d="M281.63,65.06a2.8,2.8,0,1,0,2.8-2.8A2.8,2.8,0,0,0,281.63,65.06Z"/><path class="cls-7" d="M162.67,65.06a2.8,2.8,0,1,0,2.8-2.8A2.81,2.81,0,0,0,162.67,65.06Z"/><path class="cls-7" d="M43.72,65.06a2.8,2.8,0,1,0,2.8-2.8A2.8,2.8,0,0,0,43.72,65.06Z"/><path class="cls-7" d="M1233.28,179a2.8,2.8,0,1,0,2.8-2.8A2.8,2.8,0,0,0,1233.28,179Z"/><path class="cls-7" d="M1114.32,179a2.8,2.8,0,1,0,2.8-2.8A2.8,2.8,0,0,0,1114.32,179Z"/><path class="cls-7" d="M995.36,179a2.8,2.8,0,1,0,2.8-2.8A2.81,2.81,0,0,0,995.36,179Z"/><path class="cls-7" d="M876.41,179a2.8,2.8,0,1,0,2.8-2.8A2.8,2.8,0,0,0,876.41,179Z"/><path class="cls-7" d="M757.45,179a2.8,2.8,0,1,0,2.8-2.8A2.81,2.81,0,0,0,757.45,179Z"/><path class="cls-7" d="M638.5,179a2.8,2.8,0,1,0,2.8-2.8A2.8,2.8,0,0,0,638.5,179Z"/><path class="cls-7" d="M519.54,179a2.8,2.8,0,1,0,2.8-2.8A2.8,2.8,0,0,0,519.54,179Z"/><path class="cls-7" d="M400.59,179a2.8,2.8,0,1,0,2.8-2.8A2.8,2.8,0,0,0,400.59,179Z"/><path class="cls-7" d="M281.63,179a2.8,2.8,0,1,0,2.8-2.8A2.8,2.8,0,0,0,281.63,179Z"/><path class="cls-7" d="M162.67,179a2.8,2.8,0,1,0,2.8-2.8A2.81,2.81,0,0,0,162.67,179Z"/><path class="cls-7" d="M43.72,179a2.8,2.8,0,1,0,2.8-2.8A2.8,2.8,0,0,0,43.72,179Z"/><path class="cls-7" d="M1233.28,292.9a2.8,2.8,0,1,0,2.8-2.8A2.8,2.8,0,0,0,1233.28,292.9Z"/><path class="cls-7" d="M1114.32,292.9a2.8,2.8,0,1,0,2.8-2.8A2.8,2.8,0,0,0,1114.32,292.9Z"/><path class="cls-7" d="M995.36,292.9a2.8,2.8,0,1,0,2.8-2.8A2.81,2.81,0,0,0,995.36,292.9Z"/><path class="cls-7" d="M876.41,292.9a2.8,2.8,0,1,0,2.8-2.8A2.8,2.8,0,0,0,876.41,292.9Z"/><path class="cls-7" d="M757.45,292.9a2.8,2.8,0,1,0,2.8-2.8A2.81,2.81,0,0,0,757.45,292.9Z"/><path class="cls-7" d="M638.5,292.9a2.8,2.8,0,1,0,2.8-2.8A2.8,2.8,0,0,0,638.5,292.9Z"/><path class="cls-7" d="M519.54,292.9a2.8,2.8,0,1,0,2.8-2.8A2.8,2.8,0,0,0,519.54,292.9Z"/><path class="cls-7" d="M400.59,292.9a2.8,2.8,0,1,0,2.8-2.8A2.8,2.8,0,0,0,400.59,292.9Z"/><path class="cls-7" d="M281.63,292.9a2.8,2.8,0,1,0,2.8-2.8A2.8,2.8,0,0,0,281.63,292.9Z"/><path class="cls-7" d="M162.67,292.9a2.8,2.8,0,1,0,2.8-2.8A2.81,2.81,0,0,0,162.67,292.9Z"/><path class="cls-7" d="M43.72,292.9a2.8,2.8,0,1,0,2.8-2.8A2.8,2.8,0,0,0,43.72,292.9Z"/><path class="cls-7" d="M1233.28,406.82a2.8,2.8,0,1,0,2.8-2.8A2.79,2.79,0,0,0,1233.28,406.82Z"/><path class="cls-7" d="M1114.32,406.82a2.8,2.8,0,1,0,2.8-2.8A2.79,2.79,0,0,0,1114.32,406.82Z"/><path class="cls-7" d="M995.36,406.82a2.8,2.8,0,1,0,2.8-2.8A2.8,2.8,0,0,0,995.36,406.82Z"/><circle class="cls-7" cx="879.21" cy="406.82" r="2.8"/><path class="cls-7" d="M757.45,406.82a2.8,2.8,0,1,0,2.8-2.8A2.8,2.8,0,0,0,757.45,406.82Z"/><path class="cls-7" d="M638.5,406.82a2.8,2.8,0,1,0,2.8-2.8A2.79,2.79,0,0,0,638.5,406.82Z"/><path class="cls-7" d="M519.54,406.82a2.8,2.8,0,1,0,2.8-2.8A2.79,2.79,0,0,0,519.54,406.82Z"/><path class="cls-7" d="M400.59,406.82a2.8,2.8,0,1,0,2.8-2.8A2.79,2.79,0,0,0,400.59,406.82Z"/><path class="cls-7" d="M281.63,406.82a2.8,2.8,0,1,0,2.8-2.8A2.79,2.79,0,0,0,281.63,406.82Z"/><path class="cls-7" d="M162.67,406.82a2.8,2.8,0,1,0,2.8-2.8A2.8,2.8,0,0,0,162.67,406.82Z"/><path class="cls-7" d="M43.72,406.82a2.8,2.8,0,1,0,2.8-2.8A2.79,2.79,0,0,0,43.72,406.82Z"/><path class="cls-7" d="M1233.28,520.73a2.8,2.8,0,1,0,2.8-2.79A2.8,2.8,0,0,0,1233.28,520.73Z"/><path class="cls-7" d="M1114.32,520.73a2.8,2.8,0,1,0,2.8-2.79A2.8,2.8,0,0,0,1114.32,520.73Z"/><path class="cls-7" d="M995.36,520.73a2.8,2.8,0,1,0,2.8-2.79A2.8,2.8,0,0,0,995.36,520.73Z"/><path class="cls-7" d="M876.41,520.73a2.8,2.8,0,1,0,2.8-2.79A2.8,2.8,0,0,0,876.41,520.73Z"/><path class="cls-7" d="M757.45,520.73a2.8,2.8,0,1,0,2.8-2.79A2.8,2.8,0,0,0,757.45,520.73Z"/><path class="cls-7" d="M638.5,520.73a2.8,2.8,0,1,0,2.8-2.79A2.8,2.8,0,0,0,638.5,520.73Z"/><path class="cls-7" d="M519.54,520.73a2.8,2.8,0,1,0,2.8-2.79A2.8,2.8,0,0,0,519.54,520.73Z"/><path class="cls-7" d="M400.59,520.73a2.8,2.8,0,1,0,2.8-2.79A2.8,2.8,0,0,0,400.59,520.73Z"/><path class="cls-7" d="M281.63,520.73a2.8,2.8,0,1,0,2.8-2.79A2.8,2.8,0,0,0,281.63,520.73Z"/><path class="cls-7" d="M162.67,520.73a2.8,2.8,0,1,0,2.8-2.79A2.8,2.8,0,0,0,162.67,520.73Z"/><path class="cls-7" d="M43.72,520.73a2.8,2.8,0,1,0,2.8-2.79A2.8,2.8,0,0,0,43.72,520.73Z"/><path class="cls-7" d="M1233.28,634.65a2.8,2.8,0,1,0,2.8-2.8A2.8,2.8,0,0,0,1233.28,634.65Z"/><path class="cls-7" d="M1114.32,634.65a2.8,2.8,0,1,0,2.8-2.8A2.8,2.8,0,0,0,1114.32,634.65Z"/><path class="cls-7" d="M995.36,634.65a2.8,2.8,0,1,0,2.8-2.8A2.8,2.8,0,0,0,995.36,634.65Z"/><path class="cls-7" d="M876.41,634.65a2.8,2.8,0,1,0,2.8-2.8A2.8,2.8,0,0,0,876.41,634.65Z"/><path class="cls-7" d="M757.45,634.65a2.8,2.8,0,1,0,2.8-2.8A2.8,2.8,0,0,0,757.45,634.65Z"/><path class="cls-7" d="M638.5,634.65a2.8,2.8,0,1,0,2.8-2.8A2.8,2.8,0,0,0,638.5,634.65Z"/><path class="cls-7" d="M519.54,634.65a2.8,2.8,0,1,0,2.8-2.8A2.8,2.8,0,0,0,519.54,634.65Z"/><path class="cls-7" d="M400.59,634.65a2.8,2.8,0,1,0,2.8-2.8A2.8,2.8,0,0,0,400.59,634.65Z"/><path class="cls-7" d="M281.63,634.65a2.8,2.8,0,1,0,2.8-2.8A2.8,2.8,0,0,0,281.63,634.65Z"/><path class="cls-7" d="M162.67,634.65a2.8,2.8,0,1,0,2.8-2.8A2.8,2.8,0,0,0,162.67,634.65Z"/><path class="cls-7" d="M43.72,634.65a2.8,2.8,0,1,0,2.8-2.8A2.8,2.8,0,0,0,43.72,634.65Z"/></g></g></g><g class="cls-5"><path class="cls-8" d="M359.05,336.11s25.07,59.5,92,21,72.41-77.75,200.83-40S827,352.64,854.45,309.28s79.27-103.54,188.81-97.15S1209.18,70.25,1288.13,46.22,1424.3,96.35,1424.3,96.35V859.8H-51.82S-14.06,743.09,70.62,707.61s72.54-59.5,80.32-119S321.39,489,310.05,401.6,359.05,336.11,359.05,336.11Z"/><path class="cls-9" d="M1398.75,107.69c-9.16-5.78-169.36-44.29-219.71,64S1075.3,281.39,994.43,288,938,296,848,354.11s-142.9,27.88-208.5,7.11-170.3,29-254-14.27-87.12,27.76-87.12,27.76,23.3,62-44.42,105.32-34.48,93.32-53.33,172.66S-1.56,849.5-1.56,849.5l1433.87-74.75Z"/><path class="cls-10" d="M1377.39,129.75s-26.32,122.44-137.32,136.17-114.43,9.67-156.76,65.48-65.23,87.1-140.75,66.88-141.89-67.9-203.68-29.18S592,368,543,341c-45.43-25-57,112-237,136C120,492,16.59,641.65,0,697S-129,864-129,864,1087.74,977.81,1094.61,979s394.92-213,394.92-213Z"/></g><g class="cls-5"><circle class="cls-11" cx="371.39" cy="677.26" r="24.01" transform="translate(-370.12 460.98) rotate(-45)"/><polygon class="cls-12" points="803.8 420.64 802.15 423.65 799.14 425.3 802.15 426.95 803.8 429.96 805.45 426.95 808.46 425.3 805.45 423.65 803.8 420.64"/><polygon class="cls-12" points="627.88 627.21 626.8 629.18 624.83 630.26 626.8 631.34 627.88 633.32 628.96 631.34 630.93 630.26 628.96 629.18 627.88 627.21"/><polygon class="cls-12" points="624.83 450.52 623.75 452.49 621.78 453.57 623.75 454.65 624.83 456.62 625.91 454.65 627.88 453.57 625.91 452.49 624.83 450.52"/><polygon class="cls-13" points="1145.64 361.4 1144.56 363.37 1142.59 364.45 1144.56 365.53 1145.64 367.5 1146.72 365.53 1148.69 364.45 1146.72 363.37 1145.64 361.4"/><polygon class="cls-13" points="1245.86 401.68 1244.78 403.65 1242.81 404.73 1244.78 405.81 1245.86 407.78 1246.94 405.81 1248.91 404.73 1246.94 403.65 1245.86 401.68"/><polygon class="cls-13" points="999.93 486.48 998.85 488.45 996.88 489.53 998.85 490.61 999.93 492.58 1001 490.61 1002.98 489.53 1001 488.45 999.93 486.48"/><polygon class="cls-14" points="899.08 535.38 896.94 539.28 893.04 541.42 896.94 543.55 899.08 547.46 901.21 543.55 905.11 541.42 901.21 539.28 899.08 535.38"/><polygon class="cls-13" points="1222.44 322.5 1220.31 326.41 1216.4 328.54 1220.31 330.68 1222.44 334.58 1224.58 330.68 1228.48 328.54 1224.58 326.41 1222.44 322.5"/><polygon class="cls-13" points="371.39 489.53 369.26 493.44 365.36 495.57 369.26 497.71 371.39 501.61 373.53 497.71 377.43 495.57 373.53 493.44 371.39 489.53"/><polygon class="cls-14" points="778.3 684.16 777.29 686 775.44 687.02 777.29 688.03 778.3 689.88 779.31 688.03 781.16 687.02 779.31 686 778.3 684.16"/><polygon class="cls-14" points="534.62 453.76 533.61 455.61 531.76 456.62 533.61 457.63 534.62 459.48 535.63 457.63 537.48 456.62 535.63 455.61 534.62 453.76"/><polygon class="cls-13" points="418.66 630.46 417.65 632.3 415.8 633.32 417.65 634.33 418.66 636.18 419.67 634.33 421.52 633.32 419.67 632.3 418.66 630.46"/><polygon class="cls-13" points="489.42 382.04 488.41 383.88 486.56 384.9 488.41 385.91 489.42 387.76 490.44 385.91 492.28 384.9 490.44 383.88 489.42 382.04"/><polygon class="cls-14" points="727.88 515.96 726.04 519.32 722.67 521.16 726.04 523 727.88 526.37 729.72 523 733.09 521.16 729.72 519.32 727.88 515.96"/><polygon class="cls-3" points="524.51 702.58 523.62 704.2 522 705.09 523.62 705.99 524.51 707.61 525.41 705.99 527.03 705.09 525.41 704.2 524.51 702.58"/><polygon class="cls-3" points="478.21 523.85 477.32 525.48 475.69 526.37 477.32 527.26 478.21 528.89 479.1 527.26 480.73 526.37 479.1 525.48 478.21 523.85"/><polygon class="cls-15" points="1103 527.97 1101.4 530.9 1098.47 532.5 1101.4 534.1 1103 537.03 1104.6 534.1 1107.53 532.5 1104.6 530.9 1103 527.97"/><polygon class="cls-15" points="577.72 538.18 576.58 540.27 574.48 541.42 576.58 542.56 577.72 544.66 578.87 542.56 580.97 541.42 578.87 540.27 577.72 538.18"/><polygon class="cls-15" points="754.51 586.84 753.37 588.94 751.27 590.09 753.37 591.23 754.51 593.33 755.66 591.23 757.76 590.09 755.66 588.94 754.51 586.84"/><polygon class="cls-15" points="291.27 615.17 290.12 617.27 288.02 618.41 290.12 619.56 291.27 621.65 292.41 619.56 294.51 618.41 292.41 617.27 291.27 615.17"/><g class="cls-16"><path class="cls-17" d="M1111.72,444.17A19,19,0,1,0,1125.21,421,19,19,0,0,0,1111.72,444.17Z"/><path class="cls-18" d="M1110.34,439s-1.93.56-5.24,1.78c-1.65.62-3.65,1.4-5.89,2.43a26,26,0,0,0-7.16,4.42,3.69,3.69,0,0,0-1.23,2.56,1.61,1.61,0,0,0,.09.54l.11.27a2.73,2.73,0,0,0,.59.75,4.46,4.46,0,0,0,1.28.75,17.76,17.76,0,0,0,5.23.88,67.77,67.77,0,0,0,11-.58,192.82,192.82,0,0,0,23.29-4.57,188.43,188.43,0,0,0,22.5-7.54,64.56,64.56,0,0,0,9.84-4.93,17.51,17.51,0,0,0,4.11-3.34,4.15,4.15,0,0,0,.74-1.29,2,2,0,0,0-.08-1.75,2.72,2.72,0,0,0-1.12-1.11,6,6,0,0,0-1.22-.51,26.15,26.15,0,0,0-8.41-.3c-2.45.22-4.57.52-6.31.8-3.48.58-5.44,1-5.44,1s2-.24,5.5-.54c1.75-.15,3.87-.3,6.3-.34a30,30,0,0,1,7.94.73,4.57,4.57,0,0,1,.86.41,1,1,0,0,1,.28.2.23.23,0,0,0,.1.05,1.33,1.33,0,0,1,.12.24c.18.22-.08.78-.54,1.3a15.94,15.94,0,0,1-3.8,2.8,87.49,87.49,0,0,1-9.71,4.47,235.21,235.21,0,0,1-45.24,12,86.78,86.78,0,0,1-10.66.92c-3.1,0-7.67-.5-5.05-2.88a29.28,29.28,0,0,1,6.53-4.56c2.13-1.16,4.06-2.09,5.65-2.82C1108.48,439.73,1110.34,439,1110.34,439Z"/></g><path class="cls-19" d="M1043.64,546.6l-86.32,79.25a1.21,1.21,0,0,0-.09,1.68h0a1.21,1.21,0,0,0,1.68.12l89-76.24a3.21,3.21,0,0,0,.31-4.58h0A3.2,3.2,0,0,0,1043.64,546.6Z"/><path class="cls-20" d="M1011.37,576.92l-52.89,48.57a.73.73,0,0,0-.05,1h0a.73.73,0,0,0,1,.07L1014,579.87a2,2,0,0,0,.19-2.81h0A2,2,0,0,0,1011.37,576.92Z"/><g class="cls-21"><path class="cls-22" d="M582.64,454.43,541.2,492.48a.58.58,0,0,0,0,.81h0a.58.58,0,0,0,.8.06l42.73-36.61a1.55,1.55,0,0,0,.15-2.2h0A1.55,1.55,0,0,0,582.64,454.43Z"/><path class="cls-23" d="M567.15,469l-25.39,23.32a.34.34,0,0,0,0,.49h0a.35.35,0,0,0,.49,0l26.19-22.44a.94.94,0,0,0,.09-1.34h0A.94.94,0,0,0,567.15,469Z"/></g><g class="cls-24"><path class="cls-25" d="M1218.12,517.08,1103.51,622.31a1.59,1.59,0,0,0-.11,2.23h0a1.59,1.59,0,0,0,2.23.15l118.16-101.23a4.26,4.26,0,0,0,.41-6.07h0A4.28,4.28,0,0,0,1218.12,517.08Z"/><path class="cls-26" d="M1175.29,557.34l-70.24,64.49a1,1,0,0,0-.07,1.36h0a1,1,0,0,0,1.37.09l72.41-62a2.61,2.61,0,0,0,.25-3.72h0A2.61,2.61,0,0,0,1175.29,557.34Z"/><path class="cls-27" d="M1257.27,528.48l-52.58,48.29a.72.72,0,0,0,0,1h0a.73.73,0,0,0,1,.07l54.21-46.45a2,2,0,0,0,.19-2.78h0A2,2,0,0,0,1257.27,528.48Z"/><path class="cls-28" d="M1237.62,547l-32.22,29.58a.45.45,0,0,0,0,.63h0a.45.45,0,0,0,.63,0l33.22-28.46a1.21,1.21,0,0,0,.12-1.71h0A1.2,1.2,0,0,0,1237.62,547Z"/></g><path class="cls-29" d="M406.56,532.13,354,580.42a.73.73,0,0,0-.05,1h0a.73.73,0,0,0,1,.07l54.21-46.45a2,2,0,0,0,.19-2.79h0A2,2,0,0,0,406.56,532.13Z"/><path class="cls-30" d="M386.91,550.6l-32.22,29.59a.45.45,0,0,0,0,.63h0a.45.45,0,0,0,.63,0L388.5,552.4a1.21,1.21,0,0,0,.12-1.71h0A1.21,1.21,0,0,0,386.91,550.6Z"/><circle class="cls-31" cx="948.12" cy="382.04" r="142.53"/><path class="cls-32" d="M897.85,383.13A71.5,71.5,0,0,0,1040.29,392a70,70,0,0,0,.55-8.85,71.5,71.5,0,1,0-143,0Z"/><path class="cls-33" d="M904,354.11c34.55-17.74,46.41-10.3,83.32,2.86,21.1,7.53,36.5.91,45.82-6.14A71.5,71.5,0,0,0,904,354.11Z"/><path class="cls-34" d="M900.6,402.88A71.52,71.52,0,0,0,1040.29,392c-9.66,8.84-25.24,18.36-47.26,17C955.46,406.81,926.57,380.27,900.6,402.88Z"/><circle class="cls-35" cx="131.79" cy="603.67" r="140.36" transform="translate(-388.26 270) rotate(-45)"/><path class="cls-36" d="M75.5,598.07a71.29,71.29,0,0,0,8.79,17.56A70.43,70.43,0,0,0,211.17,561.4a68.07,68.07,0,0,0-2.28-8.44A70.41,70.41,0,1,0,75.5,598.07Z"/><path class="cls-37" d="M72.07,569.06c26.64-27.44,40.05-24.25,78.63-23.61,22.06.36,34.34-10.66,40.81-20.18A70.42,70.42,0,0,0,72.07,569.06Z"/><path class="cls-38" d="M84.29,615.63A70.43,70.43,0,0,0,211.17,561.4c-6.22,11.29-17.76,25.08-38.71,30.81C136.71,602,101.39,586.34,84.29,615.63Z"/></g><g class="cls-5"><circle class="cls-39" cx="1000.99" cy="393.25" r="188.96" transform="translate(15.11 822.99) rotate(-45)"/><circle class="cls-40" cx="216.68" cy="729.87" r="188.96" transform="translate(-452.63 366.99) rotate(-45)"/><path class="cls-41" d="M787.61,425a15.7,15.7,0,1,0,15.69-15.7A15.69,15.69,0,0,0,787.61,425Z"/><circle class="cls-42" cx="458.03" cy="-29.09" r="719.47"/></g><rect class="cls-43" x="-1.56" y="-5.2" width="1283.12" height="824.02"/><g class="cls-44"><g class="cls-4"><g class="cls-45"><g class="cls-6"><path class="cls-7" d="M2.18,506.62a2.79,2.79,0,0,0-.52-3.92,2.81,2.81,0,0,0-3.93.52,2.81,2.81,0,0,0,.53,3.93A2.79,2.79,0,0,0,2.18,506.62Z"/><path class="cls-7" d="M71.37,416.13a2.8,2.8,0,1,0-3.92.52A2.8,2.8,0,0,0,71.37,416.13Z"/><path class="cls-7" d="M46.07,253.38a2.8,2.8,0,1,0-3.93.52A2.8,2.8,0,0,0,46.07,253.38Z"/><path class="cls-7" d="M140.57,325.63a2.8,2.8,0,1,0-3.93.52A2.8,2.8,0,0,0,140.57,325.63Z"/><path class="cls-7" d="M20.76,90.63a2.8,2.8,0,1,0-3.92.52A2.8,2.8,0,0,0,20.76,90.63Z"/><path class="cls-7" d="M115.26,162.88a2.8,2.8,0,1,0-3.92.52A2.8,2.8,0,0,0,115.26,162.88Z"/><path class="cls-7" d="M209.76,235.13a2.8,2.8,0,1,0-3.92.52A2.79,2.79,0,0,0,209.76,235.13Z"/></g></g></g><path class="cls-46" d="M-721,159.71C-691.2,231-710.68,265.44-585.72,313.44s160.66,78.12,156.14,129.24.08,130.41,91,191.86S-293,848-244.84,915.08-106.22,958-106.22,958L357.49,351.47-815.15-545.11S-856-429.46-810.32-349.84s21.49,91.33-8.47,143.33S-743.9-23.85-806,38.69-750.77,88.43-721,159.71Z"/><path class="cls-47" d="M-119.63,933.43c-10.79-1-161.44-67.68-135.64-184.32s-15.81-150.13-76-204.53-40-40.64-76.22-141.45S-504.09,294.2-568.82,270.85s-117.66-126.48-210.45-143-52.35-75-52.35-75,56.15-35.07,28.68-110.65,29.29-95.08,62.51-169.55S-781.48-506.4-781.48-506.4L312.19,423.9Z"/><path class="cls-48" d="M-123.2,902.93s53.46-113.25-26.38-191.58-85-77.18-84.76-147.23,1.08-108.81-71.19-138.62-154-32.25-179.53-100.53-148.23-15-209.73-69.6c-35-31.07,59.8-150.65-68.61-279C-902-148.56-893.31-330.26-872.87-384.3s-1-211-1-211S161.8,53.3,168,56.56,352.32,465.62,352.32,465.62Z"/><rect class="cls-1" x="-1182.26" y="-177.06" width="1283.12" height="824.02" transform="translate(-1112.94 93.18) rotate(-142.6)"/><g class="cls-45"><circle class="cls-49" cx="-17.41" cy="387.25" r="140.36" transform="translate(-278.92 101.11) rotate(-45)"/><path class="cls-50" d="M23.91,425.89a71.07,71.07,0,0,0,3.68-19.29,70.49,70.49,0,0,0-47.77-70,70.41,70.41,0,0,0-86,36,70.34,70.34,0,0,0-3.32,8.09,69.89,69.89,0,0,0-3,32.55A70.4,70.4,0,0,0-65.37,470,70.37,70.37,0,0,0,9,451,70.2,70.2,0,0,0,23.91,425.89Z"/><path class="cls-51" d="M9,451c-37.83,5.62-46.54-5.06-76.81-29-17.3-13.69-33.75-12.39-44.67-8.76A70.4,70.4,0,0,0-65.37,470,70.37,70.37,0,0,0,9,451Z"/><path class="cls-52" d="M27.59,406.6a70.49,70.49,0,0,0-47.77-70,70.41,70.41,0,0,0-86,36c11.79-5.19,29.34-9.14,49.46-1C-22.33,385.59-3.79,419.48,27.59,406.6Z"/></g><g class="cls-45"><circle class="cls-53" cx="-8.19" cy="235.44" r="188.96" transform="translate(-168.88 63.16) rotate(-45)"/></g></g></g></g></svg>